<svg xmlns="http://www.w3.org/2000/svg" viewBox="0 0 139.92 138.76"><defs><style>.cls-1{fill:#054d86;}</style></defs><g id="Layer_2" data-name="Layer 2"><g id="Layer_1-2" data-name="Layer 1"><path class="cls-1" d="M60.25,71.62c-5.65,4.14-11.35,8.59-9.81,15.57,1.49,6.8-2.35,9.24-6.37,12.39s-7.79,6.06-11.44,9.36c-2.05,1.85-3.4,1.58-5.34-.07C14,97.57,6.93,83,5.93,65.83,4.06,34,24.78,7.57,56,1.12,79.35-3.71,106,7.44,118.9,27.44c.67,1,1.18,2.18,1.61,3-4.59,4.1-8.9,8.08-13.38,11.84a5,5,0,0,1-3.71.84Q93.69,41.26,84,39c-12.7-2.92-23,5.38-28.06,14.33C52.26,59.88,54.91,66.13,60.25,71.62Z"/><path class="cls-1" d="M102.6,87c-2.79,2.15-5.44,4-7.82,6.13A5,5,0,0,0,93.5,96.4c-.08,2.67.36,5.36.25,8-.07,1.92-.18,4.15-1.18,5.63-1.26,1.85-3.44,3.07-5.22,4.57-1.12-1.64-2.9-3.15-3.27-5-2-9.68-7.8-15.72-16.93-19.06C65.55,90,64.39,88.21,63,87c1.42-1.49,2.59-3.68,4.32-4.31a12.89,12.89,0,0,1,7.71-.58c7.39,2.31,12.44-.29,16.47-7.1L80,68.15c-3.51-2.08-7-4.19-10.54-6.23C66.86,60.44,67,59,69,57c4.33-4.44,9-6.69,15.48-4.79A209.59,209.59,0,0,0,106.7,57a7.59,7.59,0,0,0,5.48-1.58c3.44-2.89,6.39-6.36,9.67-9.45,5-4.71,11.2-4.72,15.38-.17S140.69,56.55,135.4,61c-3.45,2.89-7,5.71-10.68,8.28A5.51,5.51,0,0,0,122.13,75c.79,8.42,1.39,16.85,2.14,25.26.43,4.88-3.43,11.5-8,12.62-1,.26-3.28-1.32-3.84-2.56C109,102.71,105.94,95,102.6,87Z"/><path class="cls-1" d="M2.65,99.09c4.19,6.33,8.23,12,11.87,18,5,8.23,15,10.46,23,4.4s15.79-12.72,23.71-19.14c4.27,1.95,8.8,3.57,9.57,9,.16,1.13-.09,2.92-.84,3.48C60.7,121.82,51.63,129,42,135.27c-9.31,6-23.32,3.93-32.29-3.73-8.52-7.28-11.92-19.94-8.13-30.36A20.83,20.83,0,0,1,2.65,99.09Z"/></g></g></svg>