<?xml version="1.0" encoding="utf-8"?>
<!-- Generator: Adobe Illustrator 25.4.1, SVG Export Plug-In . SVG Version: 6.00 Build 0)  -->
<svg version="1.1" id="Layer_1" xmlns="http://www.w3.org/2000/svg" xmlns:xlink="http://www.w3.org/1999/xlink" x="0px" y="0px"
	 viewBox="0 0 689.5 157.1" style="enable-background:new 0 0 689.5 157.1;" xml:space="preserve">
<style type="text/css">
	.st0{fill:#FCFCFC;}
	.st1{fill:#39AFFF;}
</style>
<path class="st0" d="M464.6,114.7c-10.2-12.6-10-21.3,0.9-31.7c-7.4-9.6-9.3-20.6-6.6-32.4c2.8-12.2,9.9-19.2,22.2-19.6
	c18.4-0.6,36.9-0.2,55.9-0.2V43l-7.4,3.1c0.6,6.5,1.9,12.7,1.6,19c-0.6,15.6-10.5,25-26,25.5c-6.9,0.2-13.9-0.3-20.8,0.2
	c-2.5,0.2-4.8,2.5-7.1,3.8c2.3,1.4,4.5,3.8,6.9,4c8.2,0.5,16.4,0.1,24.6,0.2c16.1,0.3,23.4,7.2,24.9,23c0.2,2,0.3,4.1,0.3,6.1
	c0.1,21.1-7.5,28.8-28.6,28.8c-7.4,0-14.9,0.1-22.3,0c-18.5-0.4-29.8-15.1-24.9-33.1C459,120.5,462.1,118,464.6,114.7z M480.9,116.2
	c-3.3,21.2-0.8,24.2,19.3,23.5c1,0,2-0.1,3.1-0.1c8.4-0.1,8.7-5.8,8.9-12.2c0.2-6.8-2.1-11-9.4-11.1S488.6,116.2,480.9,116.2z
	 M494.7,47.8c-11.7,0-15.1,2.8-15.1,12.2c0.1,9.9,3.8,13,15.3,13c10.9-0.1,14.9-3.5,14.8-12.8S506.2,47.7,494.7,47.8z"/>
<path class="st0" d="M0,12.7c6.2,0,11.9,0.3,17.5-0.1c4.6-0.3,6.1,1.7,7.3,5.8C31.5,42,38.7,65.5,45.7,89c0.8,2.6,1.7,5.1,3.3,9.9
	C54,83,58.3,69.5,62.6,56c3.9-12.4,8-24.9,11.6-37.4c1.3-4.4,3.2-6.4,8-6c5.3,0.4,10.7,0.1,17.1,0.1c-2,6.4-3.9,12.1-5.7,17.9
	C83.6,60.7,73.6,90.8,64,121.1c-1.8,5.6-4.4,7.4-10.3,7.3c-17.8-0.4-17.8-0.1-23-16.9c-9.5-30.3-19-60.6-28.4-90.9
	C1.5,18.2,0.9,15.8,0,12.7z"/>
<path class="st0" d="M279.1,155.8c3.8-13.7,7.4-27.1,11.3-41.4c-16.3-0.9-22.4-11.4-25.7-24.8c-4.8-19.3-10.1-38.5-15.4-58.4h22.9
	c4.4,17.9,8.8,36,13.4,54c1.2,4.6,1.9,9.9,9.6,9.9c5.5-21,11-42.2,16.7-63.8h22.6c-6,22.9-11.9,45.3-17.8,67.8
	c-2.9,11.1-5.5,22.4-8.9,33.4c-1.6,5.2-4.6,10.1-7,15.1C296.6,156.8,289.2,158.8,279.1,155.8z"/>
<path class="st0" d="M407.5,62.1c0.9-13.4-1.4-15.9-13.4-15.9h-31.8c-3.1-10-1.5-13.5,9.6-14.8c11.4-1.5,22.9-2.1,34.4-1.9
	c14.8,0.6,22.6,8.6,23.1,23.5c0.6,19.9,0.2,39.9,0.2,59.8c-11.9,3.4-16.1,2.2-22-6.7c-9.8,6.4-20.1,11-32.3,7.9
	c-8.9-2.2-15.3-9.1-16.2-18.2c-0.3-3.6-0.4-7.2-0.2-10.8c0.5-15,7.9-22.4,23-22.9C390.2,61.9,398.6,62.1,407.5,62.1z M407,75.5
	c-7,0.6-14.1,0.5-21,2c-7.2,1.6-5.4,8.2-5.4,13.4s3.4,6.3,7.7,6.5C403.3,98.2,409.7,91.1,407,75.5z"/>
<path class="st0" d="M613.1,73.1c0.5-5.1,0.9-10,1.4-14.8c2.2-18.4,10.8-27.5,29.1-28.6c38-2.2,44.5,10.1,45.8,39.8
	c0.4,8.6-1.1,17.3-2.6,25.9c-1.5,8.9-7.7,14.5-16.1,16.9c-11.7,3.3-23.7,4-35.7,0.9c-12.1-3.2-18.2-11.7-20.3-23.5
	C613.9,84.2,613.6,78.5,613.1,73.1z M635.2,73.2c0.3,3.5,0.3,8.7,1.1,13.8c1.3,8.1,5.5,10.5,16.8,10.3c9.4-0.2,13.3-2.6,13.8-10.8
	c0.8-9.7,0.7-19.4-0.4-29.1c-0.4-3.5-5.1-8.7-8.3-9.2c-15-2-21.9-1.9-22.6,16.5C635.5,67,635.4,69.3,635.2,73.2z"/>
<path class="st1" d="M162.3,82.4c-5.7,4.1-11.3,8.6-9.8,15.6c1.5,6.8-2.3,9.2-6.4,12.4s-7.8,6.1-11.4,9.4c-2.1,1.8-3.4,1.6-5.3-0.1
	c-13.3-11.3-20.4-25.9-21.4-43c-1.9-31.9,18.9-58.3,50.1-64.7c23.4-4.8,50,6.3,62.9,26.3c0.6,1,1.1,2,1.6,3
	c-4.6,4.1-8.9,8.1-13.4,11.8c-1.1,0.8-2.4,1-3.7,0.8c-6.5-1.3-13-2.7-19.4-4.2c-12.7-2.9-23,5.4-28.1,14.3
	C154.4,70.7,157,76.9,162.3,82.4z"/>
<path class="st1" d="M204.7,97.8c-2.8,2.2-5.4,4-7.8,6.1c-0.8,0.9-1.3,2.1-1.3,3.3c-0.1,2.7,0.4,5.3,0.3,8c-0.1,1.9-0.2,4.2-1.2,5.6
	c-1.2,1.9-3.4,3.1-5.2,4.6c-1.1-1.6-2.9-3.2-3.3-5c-2-9.7-7.8-15.7-16.9-19.1c-1.6-0.6-2.8-2.4-4.1-3.7c1.4-1.5,2.6-3.7,4.3-4.3
	c2.5-1,5.1-1.2,7.7-0.6c7.4,2.3,12.4-0.3,16.5-7.1l-11.5-6.8c-3.5-2.1-7-4.2-10.6-6.2c-2.6-1.5-2.4-3-0.5-5c4.3-4.4,9-6.7,15.5-4.8
	c7.3,2,14.7,3.6,22.2,4.8c2,0.2,3.9-0.4,5.5-1.6c3.4-2.9,6.4-6.3,9.7-9.4c5-4.7,11.2-4.7,15.4-0.2s3.5,10.8-1.8,15.2
	c-3.4,2.9-7,5.7-10.7,8.3c-2,1.2-3,3.4-2.6,5.7c0.8,8.4,1.4,16.8,2.1,25.3c0.4,4.9-3.4,11.5-8,12.6c-1.1,0.3-3.3-1.3-3.9-2.6
	C211.1,113.5,208,105.8,204.7,97.8z"/>
<path class="st1" d="M104.7,109.9c4.2,6.3,8.2,12.1,11.9,18c5,8.2,15,10.5,23,4.4s15.8-12.7,23.7-19.1c4.3,2,8.8,3.6,9.6,9
	c0.2,1.1-0.1,2.9-0.8,3.5c-9.2,6.9-18.3,14.1-28,20.4c-9.3,6-23.3,3.9-32.3-3.7c-8.6-7.5-11.8-19.5-8.1-30.3
	C104,111.3,104.3,110.6,104.7,109.9z"/>
<path class="st0" d="M583.9,113.8H563V31.3h20.9L583.9,113.8z"/>
<path class="st0" d="M573.1,21.6c-11.1,0-11.1,0-11.1-10.6c0-11,0-11,12.3-11c11.1,0,11.1,0,11.1,11.3
	C585.3,21.6,585.3,21.6,573.1,21.6z"/>
</svg>
