<svg xmlns="http://www.w3.org/2000/svg" viewBox="0 0 403.07 403.07"><defs><style>.cls-1{fill:blue;}.cls-2{fill:#06063f;}.cls-3{fill:#8b8bb2;}.cls-4{fill:#fff;}</style></defs><g id="Layer_2" data-name="Layer 2"><g id="Layer_2-2" data-name="Layer 2"><rect class="cls-1" width="403.07" height="403.07" rx="201.54"/><path class="cls-2" d="M304.18,118.2A80.37,80.37,0,0,0,197.5,157c-22.77,48.83,6.72,159.74,8,164.44a4.63,4.63,0,0,0,2.5,3h0a4.63,4.63,0,0,0,3.87,0c4.39-2,107.71-49.36,131.14-99.6A80.36,80.36,0,0,0,304.18,118.2Z"/><path class="cls-1" d="M285.32,158.66A34.13,34.13,0,1,0,301.82,204,34.17,34.17,0,0,0,285.32,158.66Z"/><path class="cls-3" d="M98.89,119.18A80.36,80.36,0,0,0,60.06,225.86c22.77,48.84,126.69,97.54,131.1,99.59a4.64,4.64,0,0,0,3.89,0h0a4.63,4.63,0,0,0,2.5-2.95c1.3-4.64,31.42-114.24,8-164.48A80.38,80.38,0,0,0,98.89,119.18Z"/><path class="cls-1" d="M117.75,159.64a34.13,34.13,0,1,0,45.36,16.51A34.17,34.17,0,0,0,117.75,159.64Z"/><path class="cls-4" d="M201.68,96.33a80.37,80.37,0,0,0-80.28,80.28c0,53.88,73.6,141.93,76.74,145.65a4.63,4.63,0,0,0,3.52,1.65h0a4.63,4.63,0,0,0,3.52-1.62C208.33,318.63,282,232,282,176.61A80.36,80.36,0,0,0,201.68,96.33Zm0,112.9a34.13,34.13,0,1,1,34.13-34.13A34.17,34.17,0,0,1,201.68,209.23Z"/></g></g></svg>