<svg xmlns="http://www.w3.org/2000/svg" viewBox="0 0 1509.41 403.07"><defs><style>.cls-1{fill:blue;}.cls-2{fill:#06063f;}.cls-3{fill:#8b8bb2;}.cls-4{fill:#fff;}</style></defs><g id="Layer_2" data-name="Layer 2"><g id="Layer_2-2" data-name="Layer 2"><rect class="cls-1" width="403.07" height="403.07" rx="201.54"/><rect class="cls-1" x="2.1" width="1507.31" height="403.07" rx="201.54"/><path class="cls-2" d="M304.18,118.2A80.37,80.37,0,0,0,197.5,157c-22.77,48.83,6.72,159.74,8,164.44a4.63,4.63,0,0,0,2.5,3h0a4.63,4.63,0,0,0,3.87,0c4.39-2,107.71-49.36,131.14-99.6A80.36,80.36,0,0,0,304.18,118.2Z"/><path class="cls-1" d="M285.32,158.66A34.13,34.13,0,1,0,301.82,204,34.17,34.17,0,0,0,285.32,158.66Z"/><path class="cls-3" d="M98.89,119.18A80.36,80.36,0,0,0,60.06,225.86c22.77,48.84,126.69,97.54,131.1,99.59a4.64,4.64,0,0,0,3.89,0h0a4.63,4.63,0,0,0,2.5-2.95c1.3-4.64,31.42-114.24,8-164.48A80.38,80.38,0,0,0,98.89,119.18Z"/><path class="cls-1" d="M117.75,159.64a34.13,34.13,0,1,0,45.36,16.51A34.17,34.17,0,0,0,117.75,159.64Z"/><path class="cls-4" d="M201.68,96.33a80.37,80.37,0,0,0-80.28,80.28c0,53.88,73.6,141.93,76.74,145.65a4.63,4.63,0,0,0,3.52,1.65h0a4.63,4.63,0,0,0,3.52-1.62C208.33,318.63,282,232,282,176.61A80.36,80.36,0,0,0,201.68,96.33Zm0,112.9a34.13,34.13,0,1,1,34.13-34.13A34.17,34.17,0,0,1,201.68,209.23Z"/><path class="cls-4" d="M463.25,98.36l36.43,125.23h1.39L537.49,98.36H592L533.33,276H467.42L408.79,98.36Z"/><path class="cls-4" d="M673.82,278.4q-21.68,0-37.12-8.63A58.66,58.66,0,0,1,613,245.66q-8.25-15.48-8.24-35.95T613,173.77a58.6,58.6,0,0,1,23.67-24.11Q652.14,141,673.82,141t37.12,8.63a58.69,58.69,0,0,1,23.68,24.11q8.24,15.48,8.24,35.94t-8.24,35.95a58.75,58.75,0,0,1-23.68,24.11Q695.5,278.41,673.82,278.4Zm.35-35.38a14.94,14.94,0,0,0,10.49-4.08q4.43-4.08,6.85-11.62a58.87,58.87,0,0,0,2.43-17.95,58.76,58.76,0,0,0-2.43-18q-2.43-7.5-6.85-11.58a15,15,0,0,0-10.49-4.07,16.09,16.09,0,0,0-11,4.07q-4.59,4.08-7,11.58a58.76,58.76,0,0,0-2.43,18,58.87,58.87,0,0,0,2.43,17.95q2.43,7.55,7,11.62A16,16,0,0,0,674.17,243Z"/><path class="cls-4" d="M791.42,325.93a94.29,94.29,0,0,1-15.7-1.26,68,68,0,0,1-13.09-3.43l10.41-34a52.86,52.86,0,0,0,10.79,2.69,17.88,17.88,0,0,0,8.42-.7,8.63,8.63,0,0,0,5.07-4.94l1-2.43L751.53,142.76h50L823,235h1.39l21.85-92.28h50.31L848,287.07a64.82,64.82,0,0,1-10.54,19.82,47.57,47.57,0,0,1-18.08,13.92Q808.16,325.93,791.42,325.93Z"/><path class="cls-4" d="M947.18,278.05a56.44,56.44,0,0,1-22.5-4.2,33.63,33.63,0,0,1-15.31-12.79q-5.55-8.59-5.55-21.86,0-10.94,3.73-18.69A33.52,33.52,0,0,1,918,207.81a48.89,48.89,0,0,1,15.56-7.55,93.68,93.68,0,0,1,19.21-3.38,179.66,179.66,0,0,0,18-2.13q6.81-1.25,9.84-3.55a7.28,7.28,0,0,0,3-6.12v-.34a9.13,9.13,0,0,0-4-8A17.54,17.54,0,0,0,969.38,174q-6.84,0-11.14,3t-5.16,9.15H909a45.55,45.55,0,0,1,7.76-22.42q6.9-10.27,20.17-16.47t33.13-6.2a90.9,90.9,0,0,1,25.67,3.34,60.68,60.68,0,0,1,19.34,9.27,41.6,41.6,0,0,1,12.18,13.88,36.14,36.14,0,0,1,4.21,17.22V276H986.73V257.24h-1A38.65,38.65,0,0,1,976,269.29,36.25,36.25,0,0,1,963.1,276,57.44,57.44,0,0,1,947.18,278.05Zm15.61-30.18a24,24,0,0,0,10.28-2.25,19.76,19.76,0,0,0,7.85-6.51,17.3,17.3,0,0,0,3-10.32v-11.1c-1.27.52-2.61,1-4,1.48s-2.92.89-4.51,1.3-3.27.78-5,1.12-3.6.67-5.51,1a27.5,27.5,0,0,0-9.06,2.82,13.45,13.45,0,0,0-5.2,4.77,11.94,11.94,0,0,0-1.69,6.28q0,5.57,3.9,8.5A16.06,16.06,0,0,0,962.79,247.87Z"/><path class="cls-4" d="M1118.55,328.7q-20,0-34.3-5.68t-22.12-15.61a40.81,40.81,0,0,1-8.8-22.76h46.14a11.66,11.66,0,0,0,3.47,6.85,16.48,16.48,0,0,0,7.15,3.77,38.24,38.24,0,0,0,9.85,1.17q9.27,0,15.39-4.51t6.12-16.3V253.08h-1.39a29,29,0,0,1-8,11.49,36.61,36.61,0,0,1-12.92,7.2,55.79,55.79,0,0,1-42.72-4.12q-11.93-6.6-19.08-20.9t-7.15-37.38q0-24.12,7.5-39.2t19.43-22.12a48.75,48.75,0,0,1,25.11-7,41.21,41.21,0,0,1,17.34,3.42,37.16,37.16,0,0,1,12.49,9.11,40.72,40.72,0,0,1,7.63,12.44h1V142.76h47.88V275.63q0,16.9-8.72,28.75t-24.5,18.08Q1139.63,328.7,1118.55,328.7Zm1.73-88.46a17.88,17.88,0,0,0,11.32-3.68,23.34,23.34,0,0,0,7.29-10.59,47.94,47.94,0,0,0,2.56-16.6,50.12,50.12,0,0,0-2.56-17,23.91,23.91,0,0,0-7.29-10.84,17.6,17.6,0,0,0-11.32-3.77,17.28,17.28,0,0,0-11.23,3.77,23.66,23.66,0,0,0-7.11,10.84,51.53,51.53,0,0,0-2.47,17,50,50,0,0,0,2.47,16.78,22.49,22.49,0,0,0,7.11,10.49A17.79,17.79,0,0,0,1120.28,240.24Z"/><path class="cls-4" d="M1212.91,276V142.76h47.87V276Zm23.93-147.09a23.66,23.66,0,0,1-16.65-6.41,20.65,20.65,0,0,1,0-30.88,24.87,24.87,0,0,1,33.35,0,20.74,20.74,0,0,1,0,30.88A23.61,23.61,0,0,1,1236.84,128.88Z"/><path class="cls-4" d="M1349.24,278.4q-21.69,0-37.12-8.63a58.69,58.69,0,0,1-23.68-24.11q-8.24-15.48-8.24-35.95t8.24-35.94a58.63,58.63,0,0,1,23.68-24.11q15.44-8.64,37.12-8.63t37.12,8.63A58.6,58.6,0,0,1,1410,173.77q8.25,15.48,8.24,35.94T1410,245.66a58.66,58.66,0,0,1-23.67,24.11Q1370.91,278.41,1349.24,278.4Zm.34-35.38a15,15,0,0,0,10.5-4.08q4.43-4.08,6.85-11.62a58.87,58.87,0,0,0,2.43-17.95,58.76,58.76,0,0,0-2.43-18q-2.43-7.5-6.85-11.58a15,15,0,0,0-10.5-4.07,16.06,16.06,0,0,0-11,4.07,25.59,25.59,0,0,0-7,11.58,58.76,58.76,0,0,0-2.43,18,58.87,58.87,0,0,0,2.43,17.95q2.42,7.55,7,11.62A16,16,0,0,0,1349.58,243Z"/></g></g></svg>