<svg xmlns="http://www.w3.org/2000/svg" viewBox="0 0 618.42 629.02"><defs><style>.cls-1{fill:#264459;}.cls-2{fill:#27445a;}.cls-3{fill:#fbfcfd;}.cls-4{fill:#9ae8f8;}</style></defs><g id="Layer_2" data-name="Layer 2"><g id="Layer_1-2" data-name="Layer 1"><path class="cls-1" d="M526.57,536.8a256.94,256.94,0,0,1-101.75,69.12C319.38,645.41,219.12,635,127.53,569c-62-44.69-101.74-106.8-118.42-181.41-27-120.87,6.34-225.22,96.43-309C165.25,23,238.82-4,320.7.47c85.64,4.66,158.69,39.14,217,103.39C580,150.51,605.17,205.4,614.56,267c6.18,40.46,5.43,81.46-5.88,121.51a41.43,41.43,0,0,1-1.55,3.89c-3.23-1.86,1.41-7.42-3.7-8.2-4.91-.75-5.26,4.31-7.7,6.7a10.62,10.62,0,0,0-1.29,2.18c-3.49,5.88-7.68,5.91-12.21,1.29-2.36-2.41-4.28-5.33-8.08-5.62.14-1.83-.07-3.77,1.5-5.19,2.84-2.25,5.2-4.62,2.14-8.38l.56-3.4c4.79-4.55,5.36-9.93,3.14-15.86a2,2,0,0,1,1.17-2.49l.15,1.49c0-.53-.09-1.05-.13-1.57l-.6.52-.53-.59c4.08-2.39,3.78-5.44,1.33-8.81,1-6.9-1.56-9.3-8.77-8.74a206,206,0,0,1-28.11-.05c-5.79-.34-8.45,1.58-10.54,7-6.35,16.53-17.79,28.31-35.19,33.06-5,1.37-5.73,4.22-6.2,8.38-3.59,31.56-9.6,62.64-19.43,92.87-1.45,4.47-.06,4.86,3.62,6.06,10.14,3.32,20.57,5.8,30.21,10.69,3.22,1.63,7.09,3.54,11.22,2.19,0,2.47,1.61,4.58.62,7.4-4.54,12.83-12.33,22.61-25,28.11-2.05.88-4.81,1.38-3.92,4.48,1.08,3.75,1.53,8.07,5.08,10.46,4,2.66,7-.59,9.92-2.54,3.53-2.33,6.88-5,10.29-7.47S523.4,533.71,526.57,536.8Zm-93.93,27.56c.78.1,1.75.54,2.32.24,20.47-10.61,38.63-24.42,55.46-40.09,3.45-3.21,1.32-5-1.63-6.12-7.41-2.86-15-5.38-22.39-8.19-3.38-1.28-4.48.47-5.43,3.22-6.49,18.61-16.34,35.38-28.13,51.08l-1.17.81,1.14.28ZM187.22,63c-23.95,11.19-44.37,27.5-65.73,44.21,9.6,5.22,18.81,7.88,27.64,11.46,5,2,7.25.62,9.42-4.36A261.8,261.8,0,0,1,184,69.26c1.34-1.92,4.06-3.33,3.11-6.42l1.2.11c-.11-.35-.21-.71-.32-1.07ZM394.91,307.68v-.05c7.1,0,14.22-.32,21.29.11,5,.3,7.47-1.38,9.36-6.17,6.9-17.52,18.7-30.38,37.31-35.59,5.1-1.43,4.09-4.62,3.71-7.84-1.52-12.93-2.82-25.92-4.9-38.77-3-18.72-8.3-37-14-55-.87-2.73-.72-8.37-6.39-7.1-24.92,5.55-50.22,8.49-75.53,11.45-2.45.29-4,.65-4.64,3.66C357,191.19,345,203.1,327.29,209.52c-3.68,1.34-4.75,3-4.69,6.7.2,13.34.33,26.69.08,40-.09,4.45,1.41,6.48,5.63,7.84,13.74,4.46,26.73,12.26,31.24,25.68,6,17.87,17.58,19.86,32.81,17.92A21.69,21.69,0,0,1,394.91,307.68Zm-173.18.2c7.38,0,14.78-.3,22.13.11,4.54.25,6.19-1.55,7.63-5.64,6.59-18.66,18.7-32.17,38-38.31,4.08-1.3,5.71-3.24,5.58-7.76Q294.5,237.14,295,218c.12-4.78-1.49-6.81-6-8.45-16.85-6.13-28.17-17.72-32-35.59-.92-4.35-2.93-5.06-6.84-5.43-23.93-2.24-47.79-5.14-71.16-10.91-4.69-1.16-6.82-.12-8.19,4.27-9.84,31.39-17.14,63.24-18.49,96.29-.2,5.12,1.39,7.42,6.18,9.09,12.71,4.42,25.17,11.49,29.19,24.23,5.26,16.66,15.8,18.3,29.75,16.46A33.61,33.61,0,0,1,221.73,307.88Zm100.86,92.55c0,5.11.46,10.27-.12,15.32-.66,5.85,1.66,8.38,7.06,10.26,15.1,5.26,25.23,15.94,30.74,30.86,1.32,3.57,2.82,5.24,7,5.78,23.56,3.08,47.1,6.36,70.54,10.2,6.57,1.08,9.39-.37,11.43-6.78A380.28,380.28,0,0,0,466,381.29c.2-2.42.84-4.6-2.24-5.39-19.39-5-30.23-19-37.89-36.18-1.43-3.2-3.41-3.88-6.57-3.86q-23.44.09-46.87-.17c-3.86-.05-5.72.91-7.14,5-5,14.43-13.33,27.86-28.19,32.11s-15.68,13.26-14.56,25.05C322.64,398.71,322.57,399.57,322.59,400.43Zm-27.92,3.3c0-8.57,0-14.53,0-20.49,0-2.17.48-4.39-2.84-5.16-21-4.86-33.37-19.29-41.33-38.26-1.38-3.27-3.46-3.89-6.59-3.87-14.77.07-29.54.15-44.3-.14-4.14-.09-6,1.39-7.22,5.14-5.53,16.75-16.74,28.17-33.52,33.5-5.23,1.66-6.35,4.2-6,9.17,1.85,29.33,9.11,57.48,18.07,85.3,1.36,4.25,3.5,5.87,8,4.81,23.11-5.36,46.64-8.22,70.14-11.05,5.54-.67,7.73-2.6,9.41-7.34,3.6-10.16,9-20.25,19.31-23.72C293.74,426.23,298.37,416.45,294.67,403.73ZM58.16,307.57c5.4,0,10.81-.27,16.18.08,4.7.31,7-1.44,8.46-5.95,6-18.17,18.35-30.22,36.57-36.09,3.74-1.2,4.91-3.09,5.07-7.17,1.41-35,8.38-69.07,19.92-102.11,2.25-6.44.31-8-5.3-9.76a361.13,361.13,0,0,1-34.38-12.28c-5-2.13-7.23-1.56-10.38,2.67-14.47,19.43-25.94,40.52-35.93,62.51-13.12,28.91-20.26,59.38-23,90.84-1.49,17.18-.83,17.24,16,17.26Zm502.12,0H570.5c13.56,0,13.84,0,12.82-13.76-4.32-58.42-25.4-110.39-60.48-157-2.8-3.73-4.9-3.44-8.35-2a186.7,186.7,0,0,1-34.61,11.52c-6.49,1.39-6.78,3.84-5,9.92,9.56,33.48,18.67,67.13,19.44,102.28.1,4.69,2.21,6.16,6.07,7.53,13.18,4.68,26,11.58,30.79,24.95C536.6,306.38,545.54,310.89,560.28,307.55ZM58.56,335.75H45.77c-11.23,0-11.59,0-10.11,11C42.9,400.5,63.19,448.84,95.8,492.12c3,4.05,5.81,4.13,10.1,2.51,10.6-4,21.24-8,32.37-10.36,5.45-1.15,7.17-3.06,5.12-9.17-10.19-30.49-16-62-19.1-93.91-.37-3.7-1.9-4.67-5-5.36-14.12-3.18-26.18-10.9-31-24.15-5.54-15.2-15.16-18.06-28.89-15.91A4,4,0,0,1,58.56,335.75ZM322.33,69.37h.29c0,10.21.11,20.42-.05,30.63-.06,4.18,1.12,6.45,5.51,8,14.56,5.17,25.28,14.89,31.31,29.29,1.31,3.12,2.88,4.32,6.32,3.92,21.38-2.5,42.51-6.37,63.55-10.88,3.23-.69,4.19-1.9,2.66-5.22-15-32.54-35.75-60.17-66.46-79.59-11.21-7.09-23.46-10.8-36.39-12.89-5.12-.82-7.1.53-6.86,6.1C322.64,48.93,322.33,59.16,322.33,69.37Zm-139,59.69c23.7,5.15,46.16,9.18,68.77,12.44,4.61.67,5.82-2.15,7.22-5.32,5.91-13.42,15.75-22.79,29.67-27.28,5.21-1.68,5.88-4.63,5.82-9.28-.25-19-.18-38-.26-57-.05-11.53-.15-11.84-11.31-9.1C231.93,46.09,205.41,84.4,183.33,129.06ZM435.21,502.17c-23.6-5.19-45.77-8.09-67.92-11.11-4.89-.66-6.73.65-8.49,5.14-5.67,14.4-15.63,25.15-30.44,30.11-5.46,1.83-5.94,4.55-5.88,9.18.24,17.6.67,35.22.09,52.8-.26,8.13,2.21,9.32,9.59,7.88C385.4,585.79,412.14,546.86,435.21,502.17ZM294.64,563.1h-.06c0-9.66-.05-19.33,0-29,0-3-.14-5.08-3.9-6.25-16.31-5.08-26.67-16.77-32.83-32.15-1.75-4.38-3.3-5.51-7.82-4.78q-30.23,4.89-60.56,9.1c-6.06.83-5.75,3.48-3.69,7.79a198.59,198.59,0,0,0,38,54.13c17.48,17.73,37.61,30.82,63,34.52,6.18.9,8.56-.12,8.07-7C294.16,580.75,294.64,571.91,294.64,563.1ZM308,348c16.85.15,28.81-11.21,29.13-27.66a28.24,28.24,0,0,0-27.67-28.69c-16.59-.21-29.83,12.29-29.94,28.27C279.38,336.67,290.7,347.83,308,348ZM164.34,320.92c0-14.52-13.28-27.51-28.05-27.36-14.18.15-25.45,12.29-25.63,27.6-.18,14.39,11.84,26.3,26.6,26.37C153,347.6,164.29,336.52,164.34,320.92Zm343.59-.15c0-14.79-11.72-27-26-27.19-14.75-.18-26.93,12.1-26.88,27.11s12,27.22,26.11,26.95C497.25,347.34,508,336.56,507.93,320.77ZM309.42,452c-13.15.06-24.51,11.18-24.71,24.17-.19,12.37,11.19,23.08,24.54,23.08,12.79,0,24.38-11.86,24.07-24.65C333,462.07,322.3,451.94,309.42,452Zm23.1-292.39c.11-13.57-9.12-23.21-22.39-23.38-13.79-.17-24.57,10.22-24.55,23.67,0,13.14,10.32,22.81,24.27,22.8C323.2,182.68,332.41,173.3,332.52,159.61Zm-149,404.74c.1-1.43.39-2.14.15-2.49a316,316,0,0,1-27.73-49.33c-1.15-2.57-2.87-2.94-5.48-2-9.29,3.14-18.64,6.07-29.29,9.52C140,538.67,161,552.18,183.49,564.35ZM495.14,109.14C475.85,90,454.6,76.6,432,64.92a251.62,251.62,0,0,1,28.22,51.79c1.23,3,2.53,4.42,6.27,2.9C475.34,116,484.42,113,495.14,109.14Z"/><path class="cls-2" d="M574.15,388.71c3.8.29,5.72,3.21,8.08,5.62,4.53,4.62,8.72,4.59,12.21-1.29a10.62,10.62,0,0,1,1.29-2.18c2.44-2.39,2.79-7.45,7.7-6.7,5.11.78.47,6.34,3.7,8.2-4,22.47-13.07,43.16-22.82,63.55a292,292,0,0,1-57.74,80.89c-3.17-3.09-6.47-3-9.9-.44s-6.76,5.14-10.29,7.47c-3,1.95-5.95,5.2-9.92,2.54-3.55-2.39-4-6.71-5.08-10.46-.89-3.1,1.87-3.6,3.92-4.48,12.68-5.5,20.47-15.28,25-28.11,1-2.82-.6-4.93-.62-7.4,6.87-9.64,14.22-18.9,20.48-29C555.3,442.43,565.14,415.77,574.15,388.71Z"/><path class="cls-3" d="M394.91,307.68a21.69,21.69,0,0,0-2.55,0c-15.23,1.94-26.8-.05-32.81-17.92-4.51-13.42-17.5-21.22-31.24-25.68-4.22-1.36-5.72-3.39-5.63-7.84.25-13.34.12-26.69-.08-40-.06-3.65,1-5.36,4.69-6.7C345,203.1,357,191.19,361.11,172.37c.66-3,2.19-3.37,4.64-3.66,25.31-3,50.61-5.9,75.53-11.45,5.67-1.27,5.52,4.37,6.39,7.1,5.71,18.06,11,36.29,14,55,2.08,12.85,3.38,25.84,4.9,38.77.38,3.22,1.39,6.41-3.71,7.84-18.61,5.21-30.41,18.07-37.31,35.59-1.89,4.79-4.33,6.47-9.36,6.17-7.07-.43-14.19-.11-21.29-.11Z"/><path class="cls-3" d="M221.73,307.89a31.85,31.85,0,0,0-4.26,0c-13.95,1.84-24.49.2-29.75-16.46-4-12.74-16.48-19.81-29.19-24.23-4.79-1.67-6.38-4-6.18-9.09,1.35-33,8.65-64.9,18.49-96.29,1.37-4.39,3.5-5.43,8.19-4.27,23.37,5.77,47.23,8.67,71.16,10.91,3.91.37,5.92,1.08,6.84,5.43,3.79,17.87,15.11,29.46,32,35.59,4.5,1.64,6.11,3.67,6,8.45q-.48,19.15.06,38.32c.13,4.52-1.5,6.46-5.58,7.76-19.27,6.14-31.38,19.65-38,38.31-1.44,4.09-3.09,5.89-7.63,5.64C236.51,307.58,229.11,307.88,221.73,307.89Z"/><path class="cls-3" d="M322.58,400.43c0-.86.06-1.72,0-2.56-1.12-11.79-.32-20.79,14.56-25.05s23.17-17.68,28.19-32.11c1.42-4.11,3.28-5.07,7.14-5q23.43.29,46.87.17c3.16,0,5.14.66,6.57,3.86,7.66,17.19,18.5,31.19,37.89,36.18,3.08.79,2.44,3,2.24,5.39a380.28,380.28,0,0,1-16.83,84.78c-2,6.41-4.86,7.86-11.43,6.78-23.44-3.84-47-7.12-70.54-10.2-4.13-.54-5.63-2.21-7-5.78-5.51-14.92-15.64-25.6-30.74-30.86-5.4-1.88-7.72-4.41-7.06-10.26C323.05,410.7,322.59,405.54,322.58,400.43Z"/><path class="cls-3" d="M294.67,403.73c3.7,12.72-.93,22.5-16.87,27.89-10.28,3.47-15.71,13.56-19.31,23.72-1.68,4.74-3.87,6.67-9.41,7.34-23.5,2.83-47,5.69-70.14,11.05-4.54,1.06-6.68-.56-8-4.81-9-27.82-16.22-56-18.07-85.3-.32-5,.8-7.51,6-9.17,16.78-5.33,28-16.75,33.52-33.5,1.24-3.75,3.08-5.23,7.22-5.14,14.76.29,29.53.21,44.3.14,3.13,0,5.21.6,6.59,3.87,8,19,20.31,33.4,41.33,38.26,3.32.77,2.82,3,2.84,5.16C294.71,389.2,294.67,395.16,294.67,403.73Z"/><path class="cls-3" d="M58.16,307.57H51.35c-16.81,0-17.47-.08-16-17.26,2.74-31.46,9.88-61.93,23-90.84,10-22,21.46-43.08,35.93-62.51,3.15-4.23,5.38-4.8,10.38-2.67a361.13,361.13,0,0,0,34.38,12.28c5.61,1.74,7.55,3.32,5.3,9.76-11.54,33-18.51,67.08-19.92,102.11-.16,4.08-1.33,6-5.07,7.17-18.22,5.87-30.55,17.92-36.57,36.09-1.5,4.51-3.76,6.26-8.46,5.95C69,307.3,63.56,307.57,58.16,307.57Z"/><path class="cls-3" d="M560.28,307.55c-14.74,3.34-23.68-1.17-29.14-16.54-4.74-13.37-17.61-20.27-30.79-24.95-3.86-1.37-6-2.84-6.07-7.53-.77-35.15-9.88-68.8-19.44-102.28-1.74-6.08-1.45-8.53,5-9.92a186.7,186.7,0,0,0,34.61-11.52c3.45-1.48,5.55-1.77,8.35,2,35.08,46.63,56.16,98.6,60.48,157,1,13.78.74,13.8-12.82,13.76Z"/><path class="cls-3" d="M58.56,335.76a4.83,4.83,0,0,0,.85,0c13.73-2.15,23.35.71,28.89,15.91,4.83,13.25,16.89,21,31,24.15,3.08.69,4.61,1.66,5,5.36,3.14,31.95,8.91,63.42,19.1,93.91,2.05,6.11.33,8-5.12,9.17-11.13,2.35-21.77,6.35-32.37,10.36-4.29,1.62-7.05,1.54-10.1-2.51C63.19,448.84,42.9,400.5,35.66,346.78c-1.48-11-1.12-11,10.11-11Z"/><path class="cls-3" d="M574.15,388.71c-9,27.06-18.85,53.72-34,78.18-6.26,10.13-13.61,19.39-20.48,29-4.13,1.35-8-.56-11.22-2.19-9.64-4.89-20.07-7.37-30.21-10.69-3.68-1.2-5.07-1.59-3.62-6.06,9.83-30.23,15.84-61.31,19.43-92.87.47-4.16,1.15-7,6.2-8.38,17.4-4.75,28.84-16.53,35.19-33.06,2.09-5.45,4.75-7.37,10.54-7a206,206,0,0,0,28.11.05c7.21-.56,9.8,1.84,8.77,8.74q-.68,4.4-1.33,8.81l.53.59.6-.52s0,.08,0,.08a2,2,0,0,0-1.17,2.49q-1.56,7.94-3.14,15.86c-.18,1.13-.37,2.26-.56,3.4-.72,2.79-1.43,5.59-2.14,8.38C574.08,384.94,574.29,386.88,574.15,388.71Z"/><path class="cls-3" d="M322.33,69.37c0-10.21.31-20.44-.12-30.63-.24-5.57,1.74-6.92,6.86-6.1,12.93,2.09,25.18,5.8,36.39,12.89,30.71,19.42,51.47,47.05,66.46,79.59,1.53,3.32.57,4.53-2.66,5.22-21,4.51-42.17,8.38-63.55,10.88-3.44.4-5-.8-6.32-3.92-6-14.4-16.75-24.12-31.31-29.29-4.39-1.56-5.57-3.83-5.51-8,.16-10.21.05-20.42.05-30.63Z"/><path class="cls-3" d="M183.33,129.06c22.08-44.66,48.6-83,99.91-95.55,11.16-2.74,11.26-2.43,11.31,9.1.08,19,0,38,.26,57,.06,4.65-.61,7.6-5.82,9.28-13.92,4.49-23.76,13.86-29.67,27.28-1.4,3.17-2.61,6-7.22,5.32C229.49,138.24,207,134.21,183.33,129.06Z"/><path class="cls-3" d="M435.21,502.17c-23.07,44.69-49.81,83.62-103,94-7.38,1.44-9.85.25-9.59-7.88.58-17.58.15-35.2-.09-52.8-.06-4.63.42-7.35,5.88-9.18,14.81-5,24.77-15.71,30.44-30.11,1.76-4.49,3.6-5.8,8.49-5.14C389.44,494.08,411.61,497,435.21,502.17Z"/><path class="cls-3" d="M294.64,563.1c0,8.81-.48,17.65.15,26.41.49,6.84-1.89,7.86-8.07,7-25.34-3.7-45.47-16.79-63-34.52a198.59,198.59,0,0,1-38-54.13c-2.06-4.31-2.37-7,3.69-7.79q30.34-4.17,60.56-9.1c4.52-.73,6.07.4,7.82,4.78,6.16,15.38,16.52,27.07,32.83,32.15,3.76,1.17,3.92,3.26,3.9,6.25-.07,9.66,0,19.33,0,29Z"/><path class="cls-4" d="M308,348c-17.27-.15-28.59-11.31-28.48-28.08.11-16,13.35-28.48,29.94-28.27a28.24,28.24,0,0,1,27.67,28.69C336.78,336.77,324.82,348.13,308,348Z"/><path class="cls-4" d="M164.34,320.92c-.05,15.6-11.33,26.68-27.08,26.61-14.76-.07-26.78-12-26.6-26.37.18-15.31,11.45-27.45,25.63-27.6C151.06,293.41,164.39,306.4,164.34,320.92Z"/><path class="cls-4" d="M507.93,320.77c.05,15.79-10.68,26.57-26.73,26.87-14.12.27-26.06-12.05-26.11-26.95S467.22,293.4,482,293.58C496.21,293.75,507.89,306,507.93,320.77Z"/><path class="cls-4" d="M309.42,452c12.88-.06,23.59,10.07,23.9,22.6.31,12.79-11.28,24.66-24.07,24.65-13.35,0-24.73-10.71-24.54-23.08C284.91,463.18,296.27,452.06,309.42,452Z"/><path class="cls-4" d="M332.52,159.61c-.11,13.69-9.32,23.07-22.67,23.09-14,0-24.25-9.66-24.27-22.8,0-13.45,10.76-23.84,24.55-23.67C323.4,136.4,332.63,146,332.52,159.61Z"/><path class="cls-3" d="M187.1,62.84c1,3.09-1.77,4.5-3.11,6.42a261.8,261.8,0,0,0-25.44,45.07c-2.17,5-4.38,6.4-9.42,4.36-8.83-3.58-18-6.24-27.64-11.46,21.36-16.71,41.78-33,65.73-44.21Z"/><path class="cls-3" d="M183.49,564.35C161,552.18,140,538.67,121.14,520c10.65-3.45,20-6.38,29.29-9.52,2.61-.89,4.33-.52,5.48,2a316,316,0,0,0,27.73,49.33C183.88,562.21,183.59,562.92,183.49,564.35Z"/><path class="cls-3" d="M495.14,109.14c-10.72,3.87-19.8,6.88-28.65,10.47-3.74,1.52-5,.1-6.27-2.9A251.62,251.62,0,0,0,432,64.92C454.6,76.6,475.85,90,495.14,109.14Z"/><path class="cls-3" d="M432.84,564.5C444.63,548.8,454.48,532,461,513.42c.95-2.75,2-4.5,5.43-3.22,7.44,2.81,15,5.33,22.39,8.19,2.95,1.14,5.08,2.91,1.63,6.12-16.83,15.67-35,29.48-55.46,40.09-.57.3-1.54-.14-2.32-.24Z"/><path class="cls-2" d="M578.35,371.74q1.57-7.94,3.14-15.86C583.71,361.81,583.14,367.19,578.35,371.74Z"/><path class="cls-2" d="M581.55,353.24q.66-4.41,1.33-8.81C585.33,347.8,585.63,350.85,581.55,353.24Z"/><path class="cls-2" d="M575.65,383.52c.71-2.79,1.42-5.59,2.14-8.38C580.85,378.9,578.49,381.27,575.65,383.52Z"/><path class="cls-3" d="M187.22,63l.76-1.14c.11.36.21.72.32,1.07l-1.2-.11Z"/><path class="cls-2" d="M582.66,353.39s0-.08,0-.08c0,.52.08,1,.13,1.57Z"/><path class="cls-3" d="M432.64,564.36l.17,1.23-1.14-.28,1.17-.81Z"/></g></g></svg>