<svg xmlns="http://www.w3.org/2000/svg" viewBox="0 0 689.55 157.09"><defs><style>.cls-1{fill:#054d86;}</style></defs><g id="Layer_2" data-name="Layer 2"><g id="Layer_1-2" data-name="Layer 1"><path d="M464.57,114.65c-10.16-12.6-10-21.31.88-31.74-7.44-9.62-9.27-20.58-6.58-32.37,2.78-12.2,9.88-19.19,22.25-19.61,18.41-.63,36.85-.16,55.89-.16V43l-7.36,3.08c.6,6.45,1.86,12.73,1.62,19-.61,15.61-10.45,25-26,25.5-6.92.22-13.87-.29-20.75.25-2.45.19-4.75,2.48-7.12,3.82,2.29,1.39,4.51,3.84,6.88,4,8.17.51,16.39.08,24.59.23,16.09.3,23.45,7.17,24.86,23,.18,2,.26,4.1.27,6.15.11,21.08-7.55,28.79-28.61,28.82-7.43,0-14.87.13-22.3,0-18.53-.38-29.77-15.09-24.93-33.11C459,120.5,462.13,118,464.57,114.65Zm16.34,1.59c-3.31,21.21-.76,24.19,19.32,23.45,1,0,2-.14,3.07-.15,8.43-.1,8.7-5.82,8.89-12.19.2-6.83-2.09-11-9.35-11.09S488.57,116.24,480.91,116.24Zm13.75-68.49c-11.71,0-15.14,2.8-15.07,12.17.07,9.9,3.77,13,15.34,13,10.92-.06,14.87-3.49,14.81-12.84S506.2,47.73,494.66,47.75Z"/><path d="M0,12.69c6.25,0,11.88.31,17.45-.09,4.56-.33,6.09,1.68,7.27,5.76C31.54,42,38.65,65.47,45.68,89c.77,2.56,1.7,5.07,3.32,9.86C54,83,58.34,69.51,62.61,56c3.92-12.44,8-24.85,11.59-37.39,1.28-4.45,3.17-6.39,8-6,5.33.44,10.72.1,17.06.1-2,6.4-3.86,12.15-5.74,17.89C83.61,60.74,73.57,90.84,64,121.08c-1.79,5.64-4.42,7.4-10.29,7.28-17.76-.35-17.77-.08-23-16.88Q16.46,66,2.27,20.61C1.52,18.2.88,15.76,0,12.69Z"/><path d="M279.14,155.84c3.75-13.69,7.44-27.15,11.33-41.38-16.33-.93-22.36-11.36-25.72-24.84-4.83-19.32-10.12-38.52-15.37-58.38h22.9c4.42,17.89,8.83,36,13.38,54,1.16,4.62,1.93,9.86,9.6,9.91,5.51-21,11.05-42.21,16.71-63.83h22.65c-6,22.87-11.87,45.35-17.76,67.83-2.92,11.14-5.55,22.37-8.91,33.37-1.61,5.25-4.62,10.07-7,15.09C296.61,156.79,289.24,158.76,279.14,155.84Z"/><path d="M407.5,62.13c.88-13.41-1.43-15.92-13.37-15.92h-31.8c-3.11-10-1.51-13.52,9.61-14.83a221.59,221.59,0,0,1,34.41-1.85C421.16,30.1,429,38.12,429.44,53c.61,19.95.16,39.94.16,59.84-11.9,3.45-16.08,2.19-22-6.73-9.79,6.43-20.08,11-32.3,7.92-8.85-2.23-15.34-9.08-16.25-18.17a80.33,80.33,0,0,1-.25-10.75c.54-15,7.89-22.42,23.05-22.92C390.21,61.9,398.62,62.13,407.5,62.13ZM407,75.48c-6.95.61-14.15.53-21,2-7.21,1.59-5.44,8.22-5.44,13.42s3.39,6.3,7.7,6.52C403.29,98.25,409.7,91.13,407,75.48Z"/><path d="M613.08,73.13c.49-5.11.87-10,1.44-14.79,2.16-18.39,10.84-27.5,29.14-28.58,38-2.23,44.55,10.14,45.83,39.75.37,8.58-1.11,17.33-2.58,25.86-1.55,8.9-7.73,14.53-16.11,16.91-11.71,3.33-23.67,4-35.67.91C623,110,616.91,101.5,614.87,89.72,613.91,84.19,613.64,78.53,613.08,73.13Zm22.13.1c.26,3.54.29,8.71,1.11,13.75,1.32,8.11,5.47,10.46,16.78,10.27,9.43-.17,13.29-2.64,13.8-10.76a156.32,156.32,0,0,0-.38-29.11c-.43-3.48-5.06-8.72-8.31-9.16-15-2-21.92-1.88-22.59,16.51C635.53,67,635.4,69.34,635.21,73.23Z"/><path class="cls-1" d="M162.34,82.41C156.68,86.55,151,91,152.52,98c1.5,6.8-2.34,9.23-6.36,12.39s-7.8,6.06-11.45,9.36c-2.05,1.85-3.39,1.58-5.33-.08-13.3-11.3-20.36-25.88-21.37-43-1.86-31.87,18.86-58.26,50.06-64.71,23.37-4.83,50,6.32,62.91,26.32a33.19,33.19,0,0,1,1.61,3c-4.59,4.1-8.89,8.08-13.38,11.84a5,5,0,0,1-3.7.83Q195.78,52,186.12,49.8c-12.7-2.92-23,5.38-28.05,14.33C154.35,70.67,157,76.92,162.34,82.41Z"/><path class="cls-1" d="M204.68,97.77c-2.79,2.15-5.43,4-7.81,6.13a5,5,0,0,0-1.29,3.29c-.08,2.67.36,5.35.26,8-.08,1.91-.19,4.15-1.19,5.62-1.25,1.86-3.43,3.08-5.21,4.58-1.13-1.64-2.9-3.15-3.27-5-2-9.68-7.8-15.72-16.93-19.06-1.61-.59-2.77-2.4-4.13-3.65,1.42-1.5,2.59-3.68,4.32-4.31a12.89,12.89,0,0,1,7.71-.58c7.38,2.31,12.44-.29,16.47-7.11l-11.54-6.81c-3.52-2.08-7-4.19-10.55-6.23-2.57-1.48-2.41-3-.46-5,4.33-4.44,9-6.69,15.49-4.79a209.37,209.37,0,0,0,22.23,4.81,7.57,7.57,0,0,0,5.49-1.58c3.44-2.89,6.39-6.35,9.67-9.44,5-4.71,11.2-4.72,15.38-.18s3.46,10.77-1.84,15.21c-3.45,2.9-7,5.72-10.68,8.29a5.5,5.5,0,0,0-2.58,5.68c.78,8.42,1.39,16.84,2.13,25.26.43,4.88-3.42,11.5-8,12.62-1.05.26-3.29-1.32-3.85-2.56C211.11,113.5,208,105.8,204.68,97.77Z"/><path class="cls-1" d="M104.73,109.88c4.19,6.33,8.24,12.05,11.87,18,5,8.23,15,10.46,23,4.4s15.79-12.72,23.7-19.14c4.27,2,8.81,3.56,9.57,9,.16,1.13-.08,2.91-.83,3.48-9.22,6.93-18.29,14.13-28,20.38-9.31,6-23.32,3.92-32.28-3.73A28.32,28.32,0,0,1,103.62,112,23.27,23.27,0,0,1,104.73,109.88Z"/><path d="M583.94,113.84H563V31.28h20.91Z"/><path d="M573.08,21.57c-11.13,0-11.13,0-11.14-10.61,0-11,0-11,12.31-11,11.13,0,11.13,0,11.11,11.33C585.35,21.57,585.35,21.57,573.08,21.57Z"/></g></g></svg>